<svg version="1.1" xmlns="http://www.w3.org/2000/svg" xmlns:xlink="http://www.w3.org/1999/xlink" width="10.8317"
       height="15.3458">
       <g>
              <rect height="15.3458" opacity="0" width="10.8317" x="0" y="0" />
              <path d="M10.8317 7.668C10.8317 7.53636 10.7832 7.4383 10.6891 7.35393L2.80004 0.106256C2.72269 0.0316429 2.62737 0 2.51408 0C2.31134 0 2.13164 0.155869 2.13164 0.382442C2.13164 0.492995 2.17305 0.576985 2.23087 0.644567L9.88163 7.668L2.23087 14.6914C2.17305 14.752 2.13164 14.8403 2.13164 14.9536C2.13164 15.1801 2.31134 15.336 2.51408 15.336C2.62737 15.336 2.72269 15.2973 2.80004 15.22L10.6891 7.98208C10.7832 7.88793 10.8317 7.79965 10.8317 7.668Z"
                     fill="#000000" fill-opacity="0.85" />
       </g>
</svg>