<svg version="1.1" xmlns="http://www.w3.org/2000/svg" xmlns:xlink="http://www.w3.org/1999/xlink" width="21.8571"
       height="17.1825">
       <g>
              <rect height="17.1825" opacity="0" width="21.8571" x="0" y="0" />
              <path d="M2.63049 17.1258L18.9262 17.1258C20.5899 17.1258 21.4957 16.2016 21.4957 14.4992L21.4957 4.43478C21.4957 2.73242 20.5871 1.81523 18.8652 1.81523L9.33556 1.81523C8.48166 1.81523 8.10237 1.70117 7.5719 1.19688L7.04651 0.722656C6.40901 0.126565 6.04455 0 5.0426 0L2.27345 0C0.768368 0 0 0.765634 0 2.3137L0 14.4992C0 16.2254 0.905864 17.1258 2.63049 17.1258ZM2.65705 16.3973C1.39222 16.3973 0.72855 15.7391 0.72855 14.4633L0.72855 2.3805C0.72855 1.25199 1.27152 0.704722 2.38479 0.704722L4.89532 0.704722C5.70156 0.704722 6.05703 0.828552 6.62539 1.36097L7.14375 1.83792C7.7293 2.37933 8.17657 2.53675 9.18555 2.53675L18.8359 2.53675C20.0629 2.53675 20.7742 3.19768 20.7742 4.47345L20.7742 14.466C20.7742 15.7391 20.0629 16.3973 18.8359 16.3973ZM0.415647 6.18128L21.1055 6.18128L21.1055 5.48008L0.415647 5.48008Z"
                     fill="#000000" fill-opacity="0.85" />
       </g>
</svg>