<?xml version="1.0" encoding="UTF-8"?>
<!DOCTYPE svg
PUBLIC "-//W3C//DTD SVG 1.1//EN"
       "http://www.w3.org/Graphics/SVG/1.1/DTD/svg11.dtd">
<svg version="1.1" xmlns="http://www.w3.org/2000/svg" xmlns:xlink="http://www.w3.org/1999/xlink" width="10.9238" height="12.9951">
 <g>
  <rect height="12.9951" opacity="0" width="10.9238" x="0" y="0"/>
  <path d="M3.64355 10.2334C3.87598 10.2334 4.02637 10.0898 4.01953 9.87793L3.8623 4.27246C3.85547 4.05371 3.70508 3.91699 3.48633 3.91699C3.26074 3.91699 3.10352 4.06055 3.11035 4.27246L3.26758 9.87793C3.27441 10.0967 3.4248 10.2334 3.64355 10.2334ZM5.22266 10.2334C5.45508 10.2334 5.6123 10.0898 5.6123 9.87793L5.6123 4.27246C5.6123 4.06055 5.45508 3.91699 5.22266 3.91699C4.99023 3.91699 4.83301 4.06055 4.83301 4.27246L4.83301 9.87793C4.83301 10.0898 4.99023 10.2334 5.22266 10.2334ZM6.80859 10.2334C7.02051 10.2334 7.17773 10.0967 7.18457 9.87793L7.33496 4.27246C7.3418 4.06055 7.19141 3.91699 6.95898 3.91699C6.74023 3.91699 6.58984 4.06055 6.58301 4.27246L6.43262 9.87793C6.42578 10.0898 6.57617 10.2334 6.80859 10.2334ZM2.83691 2.52246L3.80762 2.52246L3.80762 1.37402C3.80762 1.09375 4.00586 0.90918 4.29297 0.90918L6.14551 0.90918C6.42578 0.90918 6.62402 1.09375 6.62402 1.37402L6.62402 2.52246L7.60156 2.52246L7.60156 1.30566C7.60156 0.499023 7.0752 0 6.21387 0L4.21777 0C3.36328 0 2.83691 0.499023 2.83691 1.30566ZM0.451172 3.00781L9.99414 3.00781C10.2471 3.00781 10.4453 2.80273 10.4453 2.5498C10.4453 2.29688 10.2402 2.0918 9.99414 2.0918L0.451172 2.0918C0.211914 2.0918 0 2.29688 0 2.5498C0 2.80273 0.211914 3.00781 0.451172 3.00781ZM2.75488 11.9971L7.69727 11.9971C8.51074 11.9971 9.03711 11.4912 9.07812 10.6709L9.43359 2.90527L8.45605 2.90527L8.11426 10.5684C8.10059 10.876 7.89551 11.0811 7.59473 11.0811L2.84375 11.0811C2.55664 11.0811 2.34473 10.8691 2.33105 10.5684L1.96875 2.90527L1.01172 2.90527L1.37402 10.6777C1.41504 11.498 1.92773 11.9971 2.75488 11.9971Z" fill="#757575" fill-opacity="1"/>
 </g>
</svg>
